<svg width="25" height="25" viewBox="0 0 25 25" fill="none" xmlns="http://www.w3.org/2000/svg">
<path fill-rule="evenodd" clip-rule="evenodd" d="M13.94 2.47509C13.5223 2.16895 13.0179 2.00391 12.5 2.00391C11.9821 2.00391 11.4777 2.16895 11.06 2.47509C10.1768 3.12309 8.72958 4.15269 7.70478 4.73829C6.75198 5.28189 5.43198 5.86029 4.54278 6.22869C4.04297 6.43602 3.62566 6.80266 3.3557 7.27161C3.08575 7.74056 2.97827 8.28556 3.04998 8.82189C3.18798 9.84069 3.36678 11.3923 3.36678 12.4999C3.36678 13.5871 3.19398 15.1051 3.05718 16.1251C2.98329 16.6825 3.10256 17.2483 3.39514 17.7285C3.68772 18.2086 4.13595 18.574 4.66518 18.7639C5.69718 19.1323 7.22358 19.7203 8.17158 20.2615C9.08598 20.7847 10.2104 21.6931 10.964 22.3411C11.3841 22.7031 11.9141 22.9127 12.4683 22.9358C13.0224 22.9589 13.568 22.7941 14.0168 22.4683C14.9084 21.8167 16.3016 20.8303 17.2952 20.2615C18.248 19.7179 19.568 19.1395 20.4572 18.7711C20.957 18.5638 21.3743 18.1971 21.6443 17.7282C21.9142 17.2592 22.0217 16.7142 21.95 16.1779C21.8132 15.1603 21.6332 13.6075 21.6332 12.4999C21.6332 11.3923 21.8132 9.84069 21.95 8.82189C22.0217 8.28556 21.9142 7.74056 21.6443 7.27161C21.3743 6.80266 20.957 6.43602 20.4572 6.22869C19.568 5.86029 18.248 5.28189 17.2952 4.73829C16.2704 4.15269 14.8232 3.12189 13.94 2.47509ZM12.4796 4.41069C12.4854 4.40611 12.4926 4.40358 12.5 4.40349C12.5084 4.40349 12.5156 4.40589 12.5204 4.41069C13.3988 5.05389 14.9468 6.16029 16.1048 6.82269C17.198 7.44669 18.6392 8.07309 19.538 8.44509C19.5476 8.44989 19.5572 8.45709 19.5644 8.46909C19.5706 8.47869 19.5731 8.49018 19.5716 8.50149C19.4336 9.52149 19.2332 11.2159 19.2332 12.4999C19.2332 13.7839 19.4336 15.4795 19.5716 16.4983C19.5731 16.5096 19.5706 16.5211 19.5644 16.5307C19.5586 16.5415 19.5492 16.5499 19.538 16.5547C18.638 16.9267 17.198 17.5531 16.1048 18.1783C14.9792 18.8203 13.4876 19.8823 12.6008 20.5303C12.5925 20.5364 12.5823 20.5394 12.572 20.5387C12.5561 20.5381 12.5409 20.5322 12.5288 20.5219C11.7668 19.8667 10.4924 18.8239 9.36198 18.1783C8.20998 17.5183 6.49758 16.8703 5.47398 16.5031C5.46143 16.4989 5.45078 16.4904 5.44398 16.4791C5.43693 16.4685 5.43395 16.4557 5.43558 16.4431C5.57238 15.4207 5.76678 13.7623 5.76678 12.4999C5.76678 11.2159 5.56638 9.52029 5.42838 8.50149C5.42685 8.49018 5.4294 8.47869 5.43558 8.46909C5.44141 8.45833 5.45072 8.44987 5.46198 8.44509C6.36198 8.07309 7.80198 7.44669 8.89518 6.82149C10.0532 6.16029 11.6012 5.05389 12.4796 4.40949V4.41069ZM11.3 12.4999C11.3 12.1816 11.4264 11.8764 11.6515 11.6514C11.8765 11.4263 12.1817 11.2999 12.5 11.2999C12.8182 11.2999 13.1235 11.4263 13.3485 11.6514C13.5736 11.8764 13.7 12.1816 13.7 12.4999C13.7 12.8182 13.5736 13.1234 13.3485 13.3484C13.1235 13.5735 12.8182 13.6999 12.5 13.6999C12.1817 13.6999 11.8765 13.5735 11.6515 13.3484C11.4264 13.1234 11.3 12.8182 11.3 12.4999ZM12.5 8.89989C11.5452 8.89989 10.6295 9.27918 9.9544 9.95431C9.27926 10.6294 8.89998 11.5451 8.89998 12.4999C8.89998 13.4547 9.27926 14.3703 9.9544 15.0455C10.6295 15.7206 11.5452 16.0999 12.5 16.0999C13.4548 16.0999 14.3704 15.7206 15.0456 15.0455C15.7207 14.3703 16.1 13.4547 16.1 12.4999C16.1 11.5451 15.7207 10.6294 15.0456 9.95431C14.3704 9.27918 13.4548 8.89989 12.5 8.89989Z" fill="#85888B"/>
</svg>
