<svg width="25" height="25" viewBox="0 0 25 25" fill="none" xmlns="http://www.w3.org/2000/svg">
<g clip-path="url(#clip0_975_1663)">
<path d="M1.73396 9.10564C2.02302 9.0806 2.32365 9.09573 2.61399 9.09555L2.61363 15.1628C2.26834 15.1635 1.79665 15.2125 1.48278 15.0699C1.42604 15.0383 1.37091 15.0007 1.32443 14.9551C1.23981 14.8722 1.18307 14.7754 1.15588 14.6596C1.10259 14.4327 1.1263 14.1722 1.12734 13.9397L1.13252 12.9659L1.11535 12.9661C0.946261 12.9677 0.777587 12.9514 0.653127 12.823C0.448421 12.6118 0.506828 12.1044 0.510339 11.8304C0.512541 11.6589 0.535213 11.487 0.668331 11.3641C0.80267 11.24 0.961317 11.2465 1.13151 11.2494L1.1294 10.336C1.1274 10.1367 1.10824 9.92352 1.1366 9.72673C1.14005 9.70234 1.14466 9.67818 1.15043 9.65425C1.15622 9.63032 1.16316 9.60672 1.17123 9.58347C1.1793 9.56021 1.18848 9.5374 1.19875 9.51504C1.20903 9.49268 1.22036 9.47087 1.23276 9.4496C1.34779 9.25463 1.52354 9.16233 1.73396 9.10564Z" fill="#85888B"/>
<path d="M22.3883 9.10148L22.4066 9.10121C22.6577 9.09793 23.1461 9.06788 23.3713 9.13085C23.3997 9.13892 23.4275 9.14877 23.4546 9.1604C23.4817 9.17204 23.5079 9.18537 23.5333 9.20037C23.5587 9.21539 23.583 9.23197 23.6062 9.25011C23.6294 9.26827 23.6513 9.28783 23.672 9.30879C23.684 9.32083 23.6955 9.33326 23.7066 9.34607C23.7177 9.3589 23.7284 9.37208 23.7385 9.38562C23.7487 9.39918 23.7584 9.41307 23.7676 9.42728C23.7769 9.44149 23.7856 9.45601 23.7938 9.47083C23.802 9.48564 23.8097 9.50071 23.8169 9.51607C23.8241 9.53141 23.8307 9.54697 23.8368 9.56276C23.8429 9.57855 23.8484 9.59454 23.8534 9.61073C23.8584 9.62689 23.8628 9.64322 23.8667 9.6597C23.9151 9.85812 23.8871 10.0928 23.8856 10.2968L23.8801 11.2212C24.0466 11.2216 24.2116 11.2434 24.3372 11.3637C24.4578 11.479 24.4895 11.6358 24.4909 11.7955C24.4935 12.082 24.5526 12.5988 24.3321 12.8107C24.2053 12.9326 24.0523 12.9327 23.8881 12.9272L23.8862 13.9416C23.8859 14.1442 23.8934 14.3495 23.8778 14.5515C23.8481 14.7088 23.7942 14.8518 23.6775 14.9668C23.6667 14.9773 23.6555 14.9875 23.6441 14.9973C23.6326 15.007 23.6208 15.0164 23.6087 15.0254C23.5965 15.0343 23.5841 15.0429 23.5714 15.051C23.5587 15.0591 23.5457 15.0667 23.5324 15.0739C23.5192 15.0812 23.5057 15.0879 23.492 15.0943C23.4783 15.1006 23.4643 15.1064 23.4502 15.1117C23.4361 15.1171 23.4218 15.1219 23.4074 15.1263C23.3929 15.1307 23.3783 15.1346 23.3636 15.1379C23.1162 15.1962 22.6585 15.1611 22.386 15.16L22.3883 9.10148Z" fill="#85888B"/>
<path fill-rule="evenodd" clip-rule="evenodd" d="M5.96555 11.4774C6.27401 11.4727 6.58252 11.4704 6.89103 11.4705L17.9607 11.4232C18.0477 11.4234 18.1353 11.4226 18.2231 11.4218C18.473 11.4195 18.7249 11.4171 18.9717 11.4372L19.2987 11.4397L19.2963 9.80648C19.2962 9.71911 19.2938 9.62488 19.2914 9.52821C19.283 9.20095 19.2738 8.83788 19.3495 8.55642C19.4178 8.3023 19.5594 8.07825 19.7456 7.89291C20.0291 7.6107 20.4087 7.48376 20.8052 7.48637L20.8178 7.48657L20.8347 7.48701C20.8484 7.48745 20.862 7.48809 20.8757 7.48891C20.8991 7.49034 20.9226 7.49232 20.9459 7.49487C20.9693 7.49744 20.9926 7.50057 21.0158 7.50426C21.039 7.50795 21.0621 7.51221 21.0851 7.51703C21.1081 7.52185 21.131 7.52723 21.1537 7.53317C21.1764 7.5391 21.199 7.54559 21.2214 7.55264L21.2415 7.55907L21.2683 7.56822L21.2882 7.57536L21.3043 7.58139L21.3152 7.58562C21.3281 7.59067 21.3409 7.5959 21.3537 7.60131C21.3753 7.6105 21.3967 7.6202 21.4178 7.63043L21.4363 7.63955L21.4534 7.64819L21.4645 7.65401L21.4805 7.66264C21.5012 7.67387 21.5214 7.68561 21.5415 7.69783C21.5616 7.71008 21.5813 7.72279 21.6007 7.73599C21.6202 7.74918 21.6393 7.76284 21.6581 7.77696C21.6662 7.78307 21.6742 7.78926 21.6822 7.79554C21.6927 7.80378 21.703 7.81216 21.7132 7.82069C21.7313 7.83572 21.7489 7.85117 21.7663 7.86705C21.7836 7.88293 21.8004 7.89922 21.817 7.91593C21.8442 7.94372 21.8704 7.97249 21.8955 8.00223C21.9206 8.03197 21.9445 8.06261 21.9673 8.09416C21.9901 8.1257 22.0117 8.15805 22.0321 8.19121C22.0524 8.22437 22.0714 8.25824 22.0892 8.29282C22.0969 8.3078 22.1044 8.32289 22.1116 8.3381L22.123 8.36273L22.1304 8.37917L22.1386 8.39846C22.1538 8.43429 22.1675 8.47063 22.18 8.50748C22.1833 8.51738 22.1866 8.5273 22.1896 8.53725L22.1948 8.55397C22.2014 8.57561 22.2074 8.5974 22.213 8.61932C22.2192 8.64378 22.2248 8.66838 22.2298 8.6931C22.2325 8.70646 22.2351 8.71985 22.2374 8.73329C22.2683 8.91031 22.2628 9.10796 22.2575 9.29751C22.2555 9.36597 22.2536 9.43339 22.2535 9.49838L22.2507 10.89C22.2495 11.4775 22.2528 12.0654 22.2561 12.6533C22.2609 13.5287 22.2658 14.4042 22.2561 15.2787C22.2518 15.6651 22.1042 16.0041 21.825 16.2735C21.5457 16.5431 21.1506 16.6822 20.7648 16.6718C20.3598 16.6608 19.9585 16.5006 19.68 16.2019C19.5098 16.0195 19.3903 15.7807 19.3348 15.5384C19.2751 15.2774 19.2825 14.9849 19.2895 14.7045L19.2896 14.7007C19.2919 14.6089 19.2941 14.5184 19.294 14.4308L19.2885 12.7556L17.9601 12.7562L6.8968 12.707L5.97011 12.7101L5.64211 12.7102L5.63883 14.5125C5.63858 14.5994 5.64077 14.6897 5.64302 14.7807C5.64945 15.0458 5.65613 15.3218 5.60446 15.5696C5.5619 15.7737 5.43675 16.0286 5.29819 16.1839C5.04275 16.4699 4.68147 16.6542 4.29724 16.6699C4.27277 16.671 4.24824 16.6715 4.22371 16.6714L4.1953 16.671L4.17101 16.6702L4.15024 16.6693L4.12553 16.6677L4.11169 16.6667L4.09256 16.665L4.07689 16.6634C4.05248 16.6609 4.0282 16.6578 4.00397 16.6541C3.97974 16.6503 3.95564 16.646 3.93159 16.6411C3.90755 16.6361 3.88369 16.6306 3.85994 16.6245C3.8478 16.6214 3.83572 16.6181 3.8237 16.6146C3.81216 16.6114 3.80068 16.6079 3.78921 16.6044C3.76583 16.5971 3.74257 16.5893 3.71956 16.5808L3.70092 16.5738L3.68653 16.5683C3.67469 16.5636 3.66291 16.5588 3.65119 16.5538C3.62861 16.5443 3.60632 16.5342 3.58422 16.5235C3.57317 16.5182 3.56218 16.5127 3.55131 16.5071L3.53783 16.5L3.51889 16.4899C3.49733 16.4781 3.47614 16.4659 3.45525 16.4531C3.43437 16.4403 3.41378 16.427 3.3935 16.4132C3.37328 16.3994 3.35343 16.3851 3.33388 16.3703C3.31439 16.3555 3.2952 16.3402 3.27644 16.3245C3.25767 16.3087 3.23928 16.2925 3.22136 16.2759L3.20509 16.2603C3.1924 16.248 3.17995 16.2355 3.16781 16.2228C3.15038 16.2047 3.13344 16.1862 3.11693 16.1672L3.10181 16.1495L3.08942 16.1346L3.07867 16.1215L3.0689 16.1091C3.05906 16.0967 3.04947 16.084 3.04006 16.0713C3.03453 16.0638 3.02913 16.0563 3.02378 16.0488C3.00921 16.0283 2.99519 16.0074 2.98171 15.9862C2.96823 15.9651 2.95523 15.9436 2.94279 15.9218L2.92985 15.8986C2.92208 15.8844 2.91449 15.8699 2.90714 15.8554C2.89579 15.833 2.88504 15.8103 2.87478 15.7874C2.86458 15.7644 2.85492 15.7412 2.84588 15.7178L2.84047 15.7037L2.83707 15.6945L2.82857 15.6709L2.82038 15.647L2.812 15.6209C2.80726 15.6057 2.80277 15.5903 2.79852 15.5749C2.79178 15.5507 2.78564 15.5264 2.78018 15.5019C2.77465 15.4774 2.7698 15.4527 2.76549 15.428C2.76281 15.4123 2.76032 15.3966 2.75808 15.3808C2.7568 15.3717 2.75559 15.3626 2.7545 15.3535C2.75146 15.3286 2.74903 15.3036 2.74721 15.2786C2.74539 15.2536 2.74423 15.2285 2.74363 15.2034C2.73604 14.867 2.73822 14.5293 2.74041 14.1921C2.74144 14.0358 2.74241 13.8796 2.74247 13.7237L2.74776 9.43345C2.74788 9.40097 2.74757 9.36791 2.74709 9.33442L2.74563 9.24694V9.24428C2.74199 9.04081 2.73816 8.82726 2.77441 8.63695C2.8242 8.37559 2.96361 8.12618 3.14753 7.93548C3.16398 7.91834 3.18086 7.90162 3.19817 7.88533C3.21541 7.86903 3.23314 7.85318 3.25124 7.83775C3.26927 7.82233 3.28773 7.80735 3.30655 7.79284C3.32538 7.77832 3.34456 7.76428 3.36405 7.75071C3.3836 7.73716 3.40346 7.72409 3.42362 7.71149C3.44378 7.69891 3.46424 7.68683 3.48501 7.67526L3.50407 7.66483C3.51864 7.657 3.53334 7.64943 3.54815 7.64211L3.562 7.63533L3.58556 7.62427C3.5946 7.62012 3.60371 7.61606 3.61288 7.61209C3.62332 7.60756 3.63377 7.60315 3.64433 7.59887L3.66473 7.59076L3.67894 7.58531C3.70123 7.57694 3.72363 7.56912 3.74628 7.56185C3.76893 7.55458 3.79176 7.54788 3.81471 7.54173C3.83772 7.53559 3.86086 7.53002 3.88411 7.52503L3.90123 7.52145L3.92485 7.51688C3.93457 7.51508 3.94434 7.51337 3.95418 7.51176L3.97434 7.5086C3.99116 7.50609 4.00798 7.50389 4.02486 7.50198C4.04848 7.49929 4.07216 7.49719 4.0959 7.49567C4.10628 7.49501 4.11666 7.49447 4.12705 7.49404C4.14041 7.49348 4.15376 7.4931 4.16718 7.49291C4.19092 7.49232 4.2146 7.49233 4.23834 7.49294C4.26203 7.49354 4.28571 7.49473 4.30933 7.49653C4.33294 7.49832 4.35656 7.5007 4.38006 7.50367C4.40362 7.50665 4.42706 7.51022 4.45038 7.51439C4.46246 7.51654 4.47454 7.51886 4.48662 7.52133C4.4978 7.52362 4.50891 7.52605 4.52002 7.52861L4.54327 7.53416C4.55852 7.53795 4.5737 7.542 4.58887 7.5463C4.61171 7.55278 4.63429 7.55983 4.65676 7.56745C4.67922 7.57505 4.70145 7.58323 4.72349 7.59198C4.74553 7.60071 4.76733 7.60999 4.78888 7.61983L4.80346 7.62659C4.82009 7.63437 4.83649 7.64247 4.85276 7.6509C4.87383 7.66181 4.8946 7.67323 4.91506 7.68518C4.93552 7.69713 4.95568 7.70958 4.97553 7.72254C4.99533 7.73549 5.01482 7.74894 5.03401 7.76289C5.05313 7.77683 5.07195 7.79125 5.09035 7.80614L5.10784 7.82045C5.11391 7.82547 5.11986 7.83054 5.12575 7.83566L5.14445 7.85215C5.15593 7.86239 5.16722 7.87283 5.17833 7.88345L5.19619 7.90082C5.38235 8.08239 5.51945 8.30473 5.58339 8.55734C5.65055 8.82296 5.64168 9.16627 5.63367 9.4763L5.63359 9.47918C5.63113 9.57512 5.62875 9.66785 5.62875 9.75405C5.62753 10.3289 5.6299 10.9037 5.63585 11.4785L5.96555 11.4774ZM18.6397 11.8269C18.2715 11.8219 17.903 11.817 17.5363 11.8265L17.5363 12.437C17.6994 12.4372 17.8628 12.4382 18.0263 12.4393C18.4434 12.4419 18.8612 12.4446 19.2772 12.4329V11.8326C19.0651 11.8325 18.8524 11.8297 18.6397 11.8269ZM7.052 11.8282C7.23045 11.8307 7.40872 11.8332 7.58663 11.8344L7.58809 12.433C7.44947 12.4421 7.30877 12.4422 7.16849 12.4411C7.14846 12.4409 7.12842 12.4407 7.10841 12.4405C7.04568 12.44 6.98314 12.4394 6.92097 12.4395L5.7228 12.4412L5.72353 11.8289C6.10969 11.8174 6.4979 11.8207 6.88572 11.8259C6.94112 11.8266 6.99662 11.8274 7.052 11.8282Z" fill="#85888B"/>
<path d="M5 11.5L8.5 6.5L9.5 9.5L13 4L15 8.5L18.5 2.5" stroke="#85888B"/>
</g>
<defs>
<clipPath id="clip0_975_1663">
<rect width="24" height="24" fill="white" transform="translate(0.5 0.5)"/>
</clipPath>
</defs>
</svg>
