<svg width="25" height="25" viewBox="0 0 25 25" fill="none" xmlns="http://www.w3.org/2000/svg">
<g clip-path="url(#clip0_975_1659)">
<path d="M1.73396 9.10569C2.02302 9.08066 2.32365 9.09579 2.61399 9.09561L2.61363 15.1629C2.26834 15.1636 1.79665 15.2125 1.48278 15.07C1.42604 15.0384 1.37091 15.0008 1.32443 14.9552C1.23981 14.8722 1.18307 14.7755 1.15588 14.6597C1.10259 14.4328 1.1263 14.1723 1.12734 13.9398L1.13252 12.9659L1.11535 12.9662C0.946261 12.9678 0.777587 12.9515 0.653127 12.8231C0.448421 12.6118 0.506828 12.1044 0.510339 11.8304C0.512541 11.659 0.535213 11.4871 0.668331 11.3641C0.80267 11.2401 0.961317 11.2466 1.13151 11.2495L1.1294 10.336C1.1274 10.1368 1.10824 9.92358 1.1366 9.72679C1.14005 9.7024 1.14466 9.67824 1.15043 9.6543C1.15622 9.63037 1.16316 9.60678 1.17123 9.58352C1.1793 9.56027 1.18848 9.53746 1.19875 9.5151C1.20903 9.49274 1.22036 9.47093 1.23276 9.44966C1.34779 9.25469 1.52354 9.16239 1.73396 9.10569Z" fill="#85888B"/>
<path d="M22.3883 9.10154L22.4066 9.10127C22.6577 9.09798 23.1461 9.06793 23.3713 9.13091C23.3997 9.13898 23.4275 9.14883 23.4546 9.16046C23.4817 9.1721 23.5079 9.18542 23.5333 9.20043C23.5587 9.21545 23.583 9.23203 23.6062 9.25017C23.6294 9.26832 23.6513 9.28789 23.672 9.30885C23.684 9.32089 23.6955 9.33331 23.7066 9.34612C23.7177 9.35895 23.7284 9.37214 23.7385 9.38568C23.7487 9.39924 23.7584 9.41312 23.7676 9.42734C23.7769 9.44155 23.7856 9.45606 23.7938 9.47089C23.802 9.48569 23.8097 9.50077 23.8169 9.51613C23.8241 9.53146 23.8307 9.54703 23.8368 9.56282C23.8429 9.57861 23.8484 9.5946 23.8534 9.61078C23.8584 9.62695 23.8628 9.64327 23.8667 9.65975C23.9151 9.85818 23.8871 10.0928 23.8856 10.2968L23.8801 11.2212C24.0466 11.2216 24.2116 11.2435 24.3372 11.3637C24.4578 11.479 24.4895 11.6359 24.4909 11.7956C24.4935 12.0821 24.5526 12.5989 24.3321 12.8108C24.2053 12.9327 24.0523 12.9328 23.8881 12.9272L23.8862 13.9416C23.8859 14.1443 23.8934 14.3496 23.8778 14.5516C23.8481 14.7089 23.7942 14.8518 23.6775 14.9669C23.6667 14.9774 23.6555 14.9876 23.6441 14.9973C23.6326 15.0071 23.6208 15.0165 23.6087 15.0254C23.5965 15.0344 23.5841 15.0429 23.5714 15.051C23.5587 15.0591 23.5457 15.0668 23.5324 15.074C23.5192 15.0812 23.5057 15.088 23.492 15.0943C23.4783 15.1006 23.4643 15.1064 23.4502 15.1118C23.4361 15.1171 23.4218 15.122 23.4074 15.1263C23.3929 15.1307 23.3783 15.1346 23.3636 15.138C23.1162 15.1963 22.6585 15.1612 22.386 15.16L22.3883 9.10154Z" fill="#85888B"/>
<path fill-rule="evenodd" clip-rule="evenodd" d="M10.4473 6.23035L10.4513 6.58215C10.2184 6.64403 9.97659 6.7418 9.77275 6.87138C9.73899 6.89286 9.7073 6.92023 9.67548 6.94769C9.63194 6.98528 9.58823 7.02305 9.53868 7.04611C9.4677 7.07913 9.34918 7.10384 9.2295 7.1288C9.13174 7.14917 9.03326 7.16971 8.95924 7.19506C8.28581 7.4256 7.70886 7.94197 7.35663 8.55319C6.87804 9.38369 6.88362 10.1969 6.88976 11.0876C6.89061 11.2136 6.89152 11.3412 6.89103 11.4706C6.58252 11.4704 6.27401 11.4727 5.96555 11.4775L5.63585 11.4786C5.6299 10.9038 5.62753 10.329 5.62875 9.7541C5.62875 9.66704 5.63118 9.57333 5.63367 9.47636C5.64168 9.16632 5.65055 8.82301 5.58339 8.5574C5.51945 8.30479 5.38235 8.08245 5.19619 7.90088L5.17833 7.8835C5.16722 7.87288 5.15593 7.86245 5.14445 7.8522L5.12575 7.83571C5.11986 7.83059 5.11391 7.82553 5.10784 7.82051L5.09035 7.8062C5.07195 7.79131 5.05313 7.77689 5.03401 7.76294C5.01482 7.749 4.99533 7.73555 4.97553 7.72259C4.95568 7.70964 4.93552 7.69719 4.91506 7.68524C4.89459 7.67329 4.87383 7.66186 4.85276 7.65096C4.83649 7.64253 4.82009 7.63443 4.80346 7.62665L4.78888 7.61988C4.76733 7.61005 4.74553 7.60077 4.72349 7.59204C4.70145 7.58329 4.67922 7.57511 4.65676 7.56751C4.63429 7.55988 4.61171 7.55283 4.58887 7.54635C4.5737 7.54205 4.55852 7.53801 4.54327 7.53422L4.52002 7.52867C4.50891 7.5261 4.4978 7.52368 4.48662 7.52139C4.47454 7.51891 4.46246 7.5166 4.45038 7.51445C4.42706 7.51028 4.40362 7.50671 4.38006 7.50372C4.35656 7.50076 4.33294 7.49838 4.30933 7.49658C4.28571 7.49479 4.26203 7.49359 4.23834 7.493C4.2146 7.49239 4.19092 7.49238 4.16718 7.49297C4.15376 7.49316 4.14041 7.49353 4.12705 7.49409C4.11666 7.49453 4.10628 7.49507 4.0959 7.49573C4.07216 7.49725 4.04848 7.49935 4.02486 7.50203C4.00798 7.50394 3.99116 7.50615 3.97434 7.50866L3.95418 7.51181C3.94434 7.51342 3.93457 7.51513 3.92485 7.51694L3.90123 7.52151L3.88411 7.52508C3.86086 7.53008 3.83772 7.53565 3.81471 7.54179C3.79176 7.54793 3.76893 7.55464 3.74628 7.56191C3.72363 7.56918 3.70123 7.577 3.67894 7.58537L3.66473 7.59082L3.64433 7.59892C3.63377 7.60321 3.62332 7.60762 3.61288 7.61215C3.60371 7.61611 3.5946 7.62017 3.58556 7.62433L3.562 7.63539L3.54815 7.64216C3.53334 7.64948 3.51864 7.65706 3.50407 7.66489L3.48501 7.67531C3.46424 7.68689 3.44378 7.69896 3.42362 7.71154C3.40346 7.72415 3.3836 7.73722 3.36405 7.75077C3.34456 7.76434 3.32538 7.77838 3.30655 7.7929C3.28773 7.80741 3.26927 7.82238 3.25124 7.83781C3.23314 7.85323 3.21541 7.86909 3.19817 7.88538C3.18086 7.90168 3.16398 7.9184 3.14753 7.93554C2.96361 8.12624 2.8242 8.37565 2.77441 8.637C2.73816 8.82731 2.74199 9.04087 2.74563 9.24433V9.24699L2.74709 9.33448C2.74757 9.36796 2.74788 9.40102 2.74776 9.4335L2.74247 13.7237C2.74241 13.8797 2.74144 14.0359 2.74041 14.1922C2.73822 14.5294 2.73604 14.867 2.74363 15.2034C2.74423 15.2285 2.74539 15.2536 2.74721 15.2787C2.74903 15.3037 2.75146 15.3286 2.7545 15.3536C2.75559 15.3627 2.7568 15.3718 2.75808 15.3809C2.76032 15.3967 2.76281 15.4124 2.76549 15.4281C2.7698 15.4528 2.77465 15.4774 2.78018 15.5019C2.78564 15.5264 2.79178 15.5508 2.79852 15.575C2.80277 15.5904 2.80726 15.6057 2.812 15.621L2.82038 15.647L2.82857 15.671L2.83707 15.6946L2.84047 15.7037L2.84588 15.7179C2.85493 15.7413 2.86458 15.7645 2.87478 15.7874C2.88504 15.8104 2.89579 15.833 2.90714 15.8555C2.91449 15.87 2.92208 15.8844 2.92985 15.8987L2.94279 15.9218C2.95523 15.9436 2.96823 15.9651 2.98171 15.9863C2.99519 16.0075 3.00921 16.0283 3.02378 16.0488C3.02913 16.0564 3.03453 16.0639 3.04006 16.0713C3.04947 16.0841 3.05906 16.0967 3.0689 16.1092L3.07867 16.1215L3.08942 16.1347L3.10181 16.1496L3.11693 16.1673C3.13344 16.1862 3.15038 16.2048 3.16781 16.2229C3.17995 16.2356 3.1924 16.2481 3.20509 16.2603L3.22136 16.2759C3.23928 16.2926 3.25767 16.3088 3.27644 16.3245C3.2952 16.3402 3.31439 16.3555 3.33388 16.3703C3.35343 16.3851 3.37328 16.3994 3.3935 16.4132C3.41378 16.427 3.43437 16.4403 3.45525 16.4531C3.47614 16.4659 3.49733 16.4782 3.51889 16.4899L3.53783 16.5001L3.55131 16.5071C3.56218 16.5127 3.57317 16.5182 3.58422 16.5236C3.60632 16.5342 3.62861 16.5443 3.65119 16.5539C3.66291 16.5589 3.67469 16.5637 3.68653 16.5683L3.70092 16.5739L3.71956 16.5809C3.74257 16.5893 3.76583 16.5972 3.78921 16.6044C3.80068 16.608 3.81216 16.6114 3.8237 16.6147C3.83572 16.6181 3.8478 16.6214 3.85994 16.6245C3.88369 16.6307 3.90755 16.6362 3.93159 16.6411C3.95564 16.646 3.97974 16.6504 4.00397 16.6541C4.0282 16.6578 4.05248 16.661 4.07689 16.6635L4.09256 16.6651L4.11169 16.6667L4.12553 16.6678L4.15024 16.6693L4.17101 16.6703L4.1953 16.6711L4.22371 16.6714C4.24824 16.6716 4.27277 16.6711 4.29724 16.67C4.68147 16.6542 5.04275 16.47 5.29819 16.1839C5.43675 16.0287 5.5619 15.7738 5.60446 15.5697C5.65613 15.3218 5.64945 15.0459 5.64302 14.7807V14.7802C5.64077 14.6892 5.63858 14.5994 5.63883 14.5125L5.64211 12.7102L5.97011 12.7102L6.8968 12.7071C6.88897 13.2426 6.88611 13.7781 6.88824 14.3137C6.888 14.4161 6.88539 14.5234 6.88271 14.6334C6.87348 15.0102 6.86353 15.4173 6.94659 15.7556C6.95108 15.7733 6.95582 15.7909 6.9608 15.8084C6.96687 15.8299 6.97337 15.8512 6.98023 15.8725L6.986 15.8902C6.99687 15.9228 7.00865 15.955 7.02121 15.987C7.03609 16.0247 7.05212 16.062 7.06936 16.0987C7.08661 16.1354 7.10501 16.1715 7.12456 16.2071C7.14411 16.2426 7.16475 16.2775 7.18649 16.3118C7.20823 16.346 7.23106 16.3796 7.25492 16.4124C7.27878 16.4452 7.30374 16.4772 7.32961 16.5084C7.35553 16.5397 7.38243 16.5701 7.41024 16.5996C7.74541 16.9509 8.22345 17.1735 8.71084 17.182C8.92074 17.1857 9.12385 17.1434 9.3227 17.0787L9.32161 19.2302C9.32149 19.3021 9.31936 19.3895 9.31706 19.4855V19.4971C9.30904 19.8421 9.2986 20.2915 9.35913 20.519C9.42459 20.7645 9.58155 20.9576 9.74239 21.1484L9.76401 21.1624C9.96371 21.2919 10.162 21.4204 10.4006 21.4651C10.5945 21.5013 10.8016 21.4982 11.0029 21.4952C11.0593 21.4943 11.1152 21.4935 11.1703 21.4936L13.5501 21.4944C13.614 21.4944 13.6795 21.4958 13.7459 21.4972C13.9669 21.5018 14.1971 21.5066 14.405 21.4609C14.5893 21.4203 14.7645 21.3372 14.9317 21.2518C15.0014 21.1896 15.0712 21.1273 15.1357 21.0597C15.3058 20.8816 15.4357 20.6572 15.492 20.4166C15.5609 20.122 15.5519 19.7105 15.544 19.3521C15.5417 19.2459 15.5394 19.1443 15.5393 19.0518C15.5435 18.3969 15.5405 17.742 15.5304 17.0872C15.5512 17.0948 15.5721 17.102 15.5932 17.1088C15.6099 17.1141 15.6267 17.1192 15.6436 17.124L15.6698 17.1312C15.717 17.1438 15.7646 17.1542 15.8127 17.1625C15.8608 17.1708 15.9092 17.177 15.9578 17.1809C16.0065 17.1849 16.0552 17.1867 16.104 17.1862C16.5954 17.1859 17.078 16.9676 17.4225 16.6216C17.4515 16.593 17.4796 16.5635 17.5066 16.533C17.5239 16.5134 17.5408 16.4935 17.5573 16.4731C17.5664 16.4618 17.5755 16.4503 17.5844 16.4388C17.6093 16.4065 17.6331 16.3734 17.6556 16.3395C17.6783 16.3056 17.6997 16.2709 17.7199 16.2356C17.7402 16.2002 17.7592 16.1642 17.7769 16.1275C17.7842 16.1124 17.7914 16.0972 17.7983 16.0818C17.808 16.06 17.8175 16.038 17.8264 16.0158C17.8329 15.9997 17.8391 15.9835 17.8451 15.9672C17.8486 15.9578 17.852 15.9483 17.8553 15.9388C17.8597 15.9262 17.8639 15.9137 17.868 15.9011C17.8806 15.8623 17.8919 15.8232 17.9018 15.7837C17.9869 15.4471 17.9775 15.0609 17.9685 14.6954V14.6949C17.9659 14.5888 17.9634 14.4845 17.9632 14.3837L17.9601 12.7563L19.2885 12.7556L19.294 14.4309C19.2941 14.5197 19.2918 14.6115 19.2895 14.7046C19.2825 14.9849 19.2751 15.2775 19.3348 15.5385C19.3903 15.7808 19.5098 16.0196 19.68 16.202C19.9585 16.5007 20.3598 16.6608 20.7648 16.6718C21.1506 16.6823 21.5457 16.5432 21.825 16.2736C22.1042 16.0041 22.2518 15.6652 22.2561 15.2788C22.2658 14.4043 22.2609 13.5287 22.2561 12.6533C22.2528 12.0654 22.2495 11.4775 22.2507 10.89L22.2535 9.49844C22.2536 9.43344 22.2555 9.36603 22.2575 9.29756C22.2628 9.10802 22.2683 8.91037 22.2374 8.73334C22.2351 8.71991 22.2325 8.70652 22.2298 8.69316C22.2248 8.66844 22.2192 8.64384 22.213 8.61937C22.2074 8.59745 22.2014 8.57567 22.1948 8.55402L22.1896 8.5373C22.1866 8.52735 22.1833 8.51743 22.18 8.50754C22.1675 8.47069 22.1538 8.43435 22.1386 8.39852L22.1304 8.37923L22.123 8.36279L22.1116 8.33816C22.1044 8.32295 22.0969 8.30786 22.0892 8.29288C22.0714 8.25829 22.0524 8.22442 22.0321 8.19126C22.0117 8.1581 21.9901 8.12575 21.9673 8.09421C21.9445 8.06267 21.9206 8.03203 21.8955 8.00228C21.8704 7.97254 21.8442 7.94378 21.817 7.91599C21.8004 7.89928 21.7836 7.88298 21.7663 7.86711C21.7489 7.85123 21.7313 7.83577 21.7132 7.82074C21.703 7.81221 21.6927 7.80383 21.6822 7.7956C21.6742 7.78932 21.6662 7.78312 21.6581 7.77702C21.6393 7.76289 21.6202 7.74924 21.6007 7.73604C21.5813 7.72285 21.5616 7.71013 21.5415 7.69789C21.5214 7.68566 21.5012 7.67393 21.4805 7.66269L21.4645 7.65407L21.4534 7.64825L21.4363 7.6396L21.4178 7.63049C21.3967 7.62026 21.3753 7.61055 21.3537 7.60137C21.3409 7.59595 21.3281 7.59072 21.3152 7.58568L21.3043 7.58145L21.2882 7.57542L21.2683 7.56828C21.2594 7.56514 21.2504 7.56209 21.2415 7.55913L21.2214 7.55269C21.199 7.54564 21.1764 7.53916 21.1537 7.53323C21.131 7.52729 21.1081 7.5219 21.0851 7.51709C21.0621 7.51227 21.039 7.50801 21.0158 7.50432C20.9926 7.50062 20.9693 7.49749 20.9459 7.49493C20.9226 7.49238 20.8991 7.49039 20.8757 7.48897C20.862 7.48814 20.8484 7.48751 20.8347 7.48707L20.8178 7.48662L20.8052 7.48642C20.4087 7.48382 20.0291 7.61076 19.7456 7.89297C19.5594 8.0783 19.4178 8.30236 19.3495 8.55648C19.2738 8.83794 19.283 9.201 19.2914 9.52826V9.52896C19.2938 9.62563 19.2962 9.71916 19.2963 9.80654L19.2987 11.4397L18.9717 11.4373C18.7249 11.4172 18.473 11.4195 18.2231 11.4218C18.1353 11.4226 18.0477 11.4235 17.9607 11.4233L17.9605 10.3778C17.9592 9.37401 17.8694 8.66781 17.1176 7.9175C16.7746 7.57515 16.3417 7.28109 15.8692 7.1535C15.8136 7.13848 15.7525 7.12831 15.6909 7.11804C15.5948 7.10201 15.4971 7.08574 15.4162 7.0504C15.3671 7.029 15.3248 6.99354 15.2828 6.95828L15.2627 6.94157C15.2431 6.92535 15.2233 6.90967 15.2027 6.89597C14.9853 6.75142 14.7461 6.65422 14.4968 6.58067L14.4971 6.55856C14.5046 5.95012 14.5109 5.45343 14.0519 4.9829C13.7521 4.67562 13.3519 4.5112 12.9251 4.50818C12.8432 4.5076 12.7606 4.50591 12.6778 4.50422C12.0418 4.49122 11.3925 4.47794 10.9054 4.96331C10.5563 5.3112 10.4444 5.75205 10.4473 6.23035ZM18.6397 11.8269C18.2715 11.822 17.903 11.8171 17.5363 11.8265L17.5363 12.4371C17.6994 12.4373 17.8628 12.4383 18.0263 12.4393C18.4434 12.442 18.8612 12.4446 19.2772 12.433V11.8326C19.0651 11.8326 18.8524 11.8297 18.6397 11.8269ZM5.72353 11.829C6.1649 11.8158 6.60893 11.822 7.052 11.8282C7.23045 11.8307 7.40872 11.8333 7.58663 11.8345L7.58809 12.433C7.42967 12.4435 7.26852 12.442 7.10841 12.4406C7.04568 12.44 6.98314 12.4394 6.92097 12.4396L5.7228 12.4413L5.72353 11.829ZM12.2575 5.49605C12.1437 5.4978 12.0428 5.49935 11.9705 5.49816C11.8088 5.51618 11.664 5.56657 11.5606 5.70134C11.5028 5.77678 11.4715 5.86732 11.4575 5.96074C11.4364 6.10041 11.4429 6.25477 11.4491 6.40421V6.40536L11.4521 6.47793C11.4535 6.51511 11.4545 6.55176 11.4548 6.58758C11.4556 6.6716 11.454 6.75698 11.4524 6.84287V6.84388C11.4484 7.05633 11.4444 7.27182 11.476 7.47713C11.5188 7.75578 11.6675 7.98497 11.8937 8.15034C12.1237 8.31866 12.3947 8.37872 12.6749 8.33073C12.7625 8.31575 12.8451 8.288 12.9265 8.25241C13.1844 8.12268 13.4 7.91302 13.4915 7.63206C13.5648 7.40743 13.571 6.20651 13.5376 5.95398C13.5296 5.89341 13.5133 5.83897 13.485 5.78479C13.4195 5.6596 13.3218 5.57644 13.1869 5.53597C13.015 5.4844 12.5832 5.49104 12.2575 5.49605ZM10.6861 13.8208C10.7942 13.8176 10.9034 13.8199 11.0124 13.8222C11.0896 13.8238 11.1668 13.8254 11.2435 13.8251C11.7335 13.8193 12.2236 13.8169 12.7137 13.8181C12.8633 13.8181 13.0144 13.8152 13.166 13.8124C13.4833 13.8064 13.8027 13.8004 14.1143 13.82C14.1969 13.8252 14.3241 13.8362 14.3915 13.8849C14.4674 13.9397 14.5233 14.0399 14.5323 14.1329C14.5578 14.3982 14.5528 14.6747 14.5478 14.9471C14.5459 15.052 14.544 15.1564 14.5439 15.2593L14.5429 19.2367C14.5429 19.3304 14.5447 19.4259 14.5465 19.522V19.523C14.5511 19.7614 14.5558 20.004 14.5323 20.2347C14.523 20.3265 14.4955 20.4156 14.4336 20.4856C14.3451 20.5856 14.2106 20.6215 14.0826 20.6275C13.9401 20.6341 13.7955 20.6309 13.6515 20.6278C13.5823 20.6262 13.5132 20.6247 13.4445 20.6243C13.4038 20.624 13.3618 20.6258 13.3195 20.6276C13.2243 20.6316 13.1269 20.6358 13.0369 20.617C12.963 20.6015 12.894 20.5677 12.8397 20.5141C12.7651 20.4407 12.7273 20.3422 12.7129 20.2394C12.6885 20.0656 12.6978 19.7956 12.7061 19.5539V19.5527C12.7099 19.4436 12.7135 19.3402 12.7137 19.2542L12.7148 15.4718L12.2361 15.4739L12.2352 19.7032C12.2351 19.7549 12.2357 19.8069 12.2363 19.859C12.2378 19.9888 12.2392 20.1192 12.2313 20.2476L12.2303 20.2625C12.2252 20.3496 12.22 20.4399 12.1512 20.4994C12.0838 20.5577 12.0051 20.5891 11.9182 20.603C11.772 20.6264 11.6086 20.6182 11.4497 20.6102C11.3721 20.6063 11.2956 20.6025 11.2228 20.6024C11.1852 20.6024 11.1472 20.6034 11.1091 20.6048C11.0844 20.6057 11.0596 20.6068 11.0348 20.6078C10.9186 20.6129 10.8018 20.618 10.689 20.6058C10.5317 20.5887 10.4441 20.5278 10.347 20.4061C10.3173 20.2074 10.3247 19.9728 10.3319 19.7501C10.3348 19.6578 10.3377 19.5676 10.3378 19.4829L10.3368 17.6969C10.3406 17.236 10.3358 16.7742 10.331 16.3123C10.324 15.6374 10.317 14.9622 10.3368 14.2893L10.3376 14.2571C10.3394 14.172 10.3411 14.0938 10.3873 14.017C10.4532 13.9073 10.5663 13.8486 10.6861 13.8208ZM15.0997 8.11157C14.7847 7.73532 14.4045 7.5279 13.9131 7.4781C13.8422 7.87332 13.6647 8.22172 13.3299 8.45795C13.0261 8.67235 12.6231 8.74281 12.2605 8.67794C12.2384 8.67402 12.2165 8.66956 12.1947 8.66456C12.1728 8.65955 12.1512 8.654 12.1296 8.64792C12.1081 8.64183 12.0868 8.63522 12.0655 8.62809C12.0443 8.62095 12.0232 8.61329 12.0024 8.60511C11.9816 8.59692 11.9609 8.58823 11.9405 8.57903C11.9201 8.56984 11.9 8.56014 11.88 8.54993C11.8601 8.53972 11.8404 8.52903 11.821 8.51785C11.8016 8.50667 11.7825 8.49503 11.7637 8.48292C11.7448 8.47079 11.7263 8.4582 11.7081 8.44516C11.6899 8.43212 11.672 8.41864 11.6545 8.4047C11.6369 8.39079 11.6198 8.37644 11.6029 8.36165C11.5861 8.34687 11.5697 8.33169 11.5536 8.31611C11.5375 8.30051 11.5218 8.28453 11.5065 8.26816C11.4912 8.25178 11.4763 8.23505 11.4618 8.21794C11.4474 8.20084 11.4334 8.18338 11.4198 8.16556C11.4062 8.14776 11.393 8.12964 11.3803 8.11118C11.3256 8.03068 11.2822 7.94378 11.2392 7.85667C11.2165 7.81058 11.2051 7.75116 11.1937 7.69173C11.1792 7.61673 11.1648 7.5417 11.1278 7.49335L11.1174 7.4921C10.6456 7.54021 10.288 7.719 9.98545 8.088L9.96675 8.11116C9.50492 8.07298 9.11529 8.18194 8.76002 8.48601C8.28483 8.8928 8.02399 9.46143 7.97863 10.0829C7.96163 10.316 7.96788 10.5557 7.97408 10.7931C7.97663 10.8901 7.97912 10.9867 7.98003 11.0823C7.98409 11.5929 7.98379 12.1035 7.97899 12.6141C7.97383 13.275 7.97207 13.9358 7.97359 14.5967C7.97347 14.6904 7.97049 14.7866 7.96746 14.8838C7.96072 15.0997 7.95386 15.3201 7.9782 15.5261C7.99776 15.6914 8.07274 15.8515 8.18186 15.9765C8.19127 15.9874 8.20098 15.9981 8.21094 16.0086C8.21653 16.0145 8.22217 16.0203 8.22794 16.026L8.2416 16.0393C8.25205 16.0492 8.26279 16.0589 8.27372 16.0684C8.28465 16.0778 8.29583 16.0869 8.30724 16.0958C8.31859 16.1047 8.33025 16.1133 8.34203 16.1216C8.35387 16.1299 8.36589 16.1379 8.3781 16.1457L8.39231 16.1544C8.3999 16.159 8.40755 16.1635 8.41526 16.1679C8.42783 16.175 8.44058 16.1818 8.45351 16.1882C8.46645 16.1947 8.4795 16.2009 8.49268 16.2067C8.50591 16.2125 8.51927 16.218 8.53275 16.2232C8.54623 16.2284 8.55983 16.2332 8.57355 16.2377C8.58728 16.2422 8.60112 16.2464 8.61502 16.2502C8.62899 16.254 8.64295 16.2575 8.65704 16.2606C8.67119 16.2637 8.68534 16.2665 8.69954 16.2689C8.71381 16.2713 8.72808 16.2734 8.74241 16.2751C8.75674 16.2768 8.77113 16.2782 8.78552 16.2792C8.79336 16.2798 8.80113 16.2802 8.80896 16.2806L8.83027 16.2813C8.83811 16.2814 8.84588 16.2815 8.85365 16.2814L8.87514 16.281C8.89008 16.2806 8.90496 16.2797 8.91989 16.2785C8.93477 16.2773 8.94965 16.2757 8.96446 16.2737C8.97928 16.2717 8.99403 16.2694 9.00873 16.2667C9.02342 16.2639 9.03805 16.2608 9.05256 16.2574C9.06714 16.2539 9.08153 16.2501 9.09592 16.2459C9.11025 16.2417 9.12446 16.2371 9.1386 16.2322C9.15269 16.2272 9.16666 16.2219 9.1805 16.2163C9.19434 16.2107 9.20807 16.2047 9.22161 16.1983C9.23515 16.192 9.2485 16.1853 9.26168 16.1783C9.26951 16.1742 9.27722 16.1699 9.28488 16.1655L9.30072 16.1563C9.3136 16.1486 9.32623 16.1406 9.33861 16.1322C9.35106 16.1239 9.3632 16.1153 9.37523 16.1064C9.38719 16.0974 9.39897 16.0881 9.41044 16.0786C9.42198 16.0691 9.43321 16.0592 9.44426 16.0491C9.60808 15.8963 9.69716 15.6896 9.70475 15.4671C9.71215 15.249 9.63437 15.026 9.48021 14.8699C9.39957 14.7882 9.30485 14.7323 9.20151 14.6849L9.206 11.8281C9.20679 11.7034 9.20436 11.5764 9.20193 11.4485C9.1958 11.124 9.18955 10.7939 9.23551 10.4808C9.27874 10.1864 9.37456 9.89306 9.53194 9.6398C9.50006 10.1891 9.55738 10.7694 9.93985 11.1978C10.165 11.45 10.4347 11.5692 10.7698 11.586C10.932 11.5941 11.0953 11.5971 11.2587 11.6C11.5128 11.6046 11.7673 11.6092 12.0187 11.6333C11.5249 11.886 10.8193 12.0174 10.2806 11.8432C10.0992 11.7845 9.94374 11.6884 9.79376 11.5723C10.0332 12.1852 10.2493 12.7839 10.4244 13.4193L14.5824 13.4182L14.6049 13.33C14.6338 13.2165 14.6627 13.1028 14.6993 12.9919C14.7773 12.7311 14.8618 12.4733 14.9645 12.2211C14.9981 12.1385 15.034 12.0563 15.0699 11.974C15.1272 11.8427 15.1846 11.7111 15.2331 11.5775C14.8436 11.8872 14.413 11.9524 13.9251 11.8955C13.6143 11.8592 13.2988 11.7747 13.0231 11.6237L13.8716 11.599C14.3375 11.5859 14.7553 11.5741 15.1015 11.2049C15.4463 10.8371 15.5675 10.3394 15.5492 9.84565C15.5462 9.77481 15.5413 9.70412 15.5343 9.63356C15.6769 9.88076 15.7745 10.1408 15.8172 10.424C15.8609 10.7138 15.8524 11.0657 15.8445 11.3949C15.8414 11.5258 15.8383 11.6532 15.8387 11.7716L15.8391 14.6687C15.6079 14.7795 15.4349 14.9255 15.3452 15.1735C15.3407 15.1864 15.3364 15.1994 15.3325 15.2125C15.3287 15.2256 15.3251 15.2388 15.3218 15.2521C15.3186 15.2654 15.3157 15.2788 15.3131 15.2922C15.3106 15.3056 15.3083 15.3191 15.3064 15.3327L15.3049 15.3442C15.3036 15.3539 15.3025 15.3636 15.3017 15.3734C15.3005 15.387 15.2996 15.4007 15.2991 15.4143C15.2988 15.4214 15.2986 15.4284 15.2985 15.4354V15.4553C15.2986 15.469 15.2991 15.4827 15.2999 15.4963C15.3007 15.51 15.3019 15.5236 15.3034 15.5372C15.3049 15.5508 15.3067 15.5643 15.3089 15.5778C15.3111 15.5913 15.3137 15.6048 15.3164 15.6181C15.3193 15.6315 15.3225 15.6448 15.326 15.658C15.3277 15.6646 15.3296 15.6712 15.3315 15.6777L15.3375 15.6974L15.342 15.7108C15.3449 15.7193 15.3478 15.7277 15.351 15.7361L15.3576 15.7532L15.3664 15.7741C15.3718 15.7866 15.3776 15.799 15.3837 15.8113C15.3899 15.824 15.3964 15.8366 15.4032 15.849C15.41 15.8614 15.4171 15.8736 15.4245 15.8856C15.432 15.8977 15.4397 15.9095 15.4477 15.9212C15.4557 15.9329 15.4641 15.9443 15.4726 15.9556C15.4812 15.9668 15.49 15.9779 15.4992 15.9887C15.5083 15.9995 15.5177 16.0101 15.5273 16.0204C15.5335 16.0271 15.5398 16.0336 15.5463 16.04L15.5571 16.0507C15.5672 16.0606 15.5776 16.0702 15.5882 16.0795C15.5988 16.0889 15.6097 16.0979 15.6208 16.1067C15.6318 16.1155 15.6431 16.1241 15.6546 16.1323C15.6661 16.1406 15.6778 16.1485 15.6897 16.1562C15.6965 16.1606 15.7035 16.165 15.7106 16.1692L15.7259 16.1783C15.7381 16.1853 15.7505 16.1921 15.7631 16.1985C15.7757 16.205 15.7884 16.2111 15.8014 16.2169C15.81 16.2208 15.8187 16.2246 15.8274 16.2282L15.8404 16.2334C15.8536 16.2386 15.8669 16.2434 15.8802 16.248C16.1069 16.3218 16.354 16.2911 16.5641 16.1823C16.7641 16.0788 16.9224 15.8931 16.9854 15.676C17.0505 15.4518 17.0411 15.0767 17.0333 14.7692C17.031 14.6767 17.0288 14.5903 17.0289 14.5159L17.0308 12.958L17.0287 10.8321C17.0283 10.7296 17.0301 10.6252 17.032 10.5201C17.0365 10.2684 17.041 10.0124 17.0152 9.76906C17.0086 9.7042 16.9985 9.63984 16.9852 9.576C16.972 9.51216 16.9555 9.44918 16.9357 9.38704C16.916 9.32491 16.8931 9.26395 16.8671 9.20415C16.8412 9.14435 16.8122 9.08604 16.7803 9.02922C16.5456 8.61147 16.1541 8.289 15.6902 8.16324C15.493 8.10979 15.3024 8.10256 15.0997 8.11157Z" fill="#85888B"/>
</g>
<defs>
<clipPath id="clip0_975_1659">
<rect width="24" height="24" fill="white" transform="translate(0.5 0.5)"/>
</clipPath>
</defs>
</svg>
